ply
format ascii 1.0
comment Generated by PyMesh
element vertex 159
property float x
property float y
property float z
property float charge
property float hbond
property float hphob
property float nx
property float ny
property float nz
property float si
element face 236
property list uchar int vertex_indices
end_header
113.688 96.179 105.931 -0.939014 0 -3.5 -0.862077 -0.0316766 0.505787 0.999938
130.131 96.838 104.989 0.0799694 0 3.8 0.219187 0.604041 -0.766219 0.211169
116.229 91.552 105.421 -1.2728 0 -3.5 -0.217573 -0.951111 -0.219202 0.999891
128.12 93.316 105.171 0.446621 0.827121 -4.5 -0.532085 -0.811885 -0.240266 -0.999868
131.233 96.536 104.729 -0.201055 -0.375143 3.8 0.0372447 0.73239 -0.679866 -0.999926
124.747 102.501 110.759 0.188548 0 4.17677 0.697697 -0.0929366 0.710339 -0.999943
126.546 99.7517 106.497 -0.826872 -0.0444909 3.8 0.256341 0.775448 -0.577036 0.506739
115.845 92.616 111.336 0.026107 0 -0.9 -0.00858689 -0.307338 0.951562 0.999941
129.617 98.865 106.288 0.136187 0 3.8 0.43893 0.645214 -0.625331 -0.610769
119.119 96.039 112.202 -0.0331321 0 0.770769 0.715192 -0.116789 0.689101 -0.999914
123 102.283 112.228 0.146121 0 4.2 0.830253 -0.240631 0.502769 0.99994
114.206 92.2549 104.201 -0.766841 0 2.92119 -0.721265 -0.692261 0.0234834 0.38781
128.218 99.7765 109.949 0.124576 0 3.8 0.530154 0.812719 0.241711 -0.999897
128.018 92.8655 107.348 0.244035 0 -0.7 -0.691879 -0.67862 -0.246534 0.430742
118.833 91.3538 110.203 0.314698 0 -4.5 0.513169 -0.724591 0.460027 -0.654685
125.785 98.4995 103.971 0.674194 -0.148142 0.0063609 0.693841 0.11968 -0.710114 -0.381287
125.088 94.246 102.56 0.00826745 0 -0.8 0.799165 0.390138 -0.457305 0.999918
131.323 98.4648 106.803 0.0817938 0 3.8 0.0613847 0.625797 -0.777567 0.999932
122.551 101.189 112.68 0.153851 0 4.2 0.934931 -0.320154 0.152991 0.999979
118.576 90.5997 105.87 -0.977074 -0.240455 -3.5 -0.401238 -0.855328 -0.327753 0.162099
123.641 92.23 107.61 -0.389035 -0.78757 -0.7 0.665511 -0.312795 0.677683 -0.999878
111.948 94.632 103.93 -1.15304 -0.405755 0.160599 -0.631975 -0.301346 0.714001 -0.999922
115.819 91.702 102.767 -1.44505 -0.727482 -3.5 0.140477 -0.989765 -0.0251261 0.999902
123.451 96.8625 108.426 0.108797 0 4.5 -0.182609 -0.386385 0.90408 0.6465
121.854 98.818 109.95 0.0966856 0 4.5 -0.248357 -0.756759 0.604678 0.999898
118.52 91.5045 103.771 -1.28669 -0.870882 -3.5 -0.558957 -0.740672 -0.372789 0.999958
127.729 99.6075 111.097 0.115015 0 3.90362 0.133592 0.692696 0.708749 -0.999951
127.667 93.686 109.229 0.0923079 0 1.8 -0.60629 -0.433322 0.666817 0.0573656
120.46 89.722 106.21 0.588057 0.567356 -4.5 -0.207442 -0.777779 0.59332 -0.999948
116.617 94.972 111.788 -0.102282 0 -0.9 -0.00354922 -0.320768 0.947151 0.999939
131.143 95.6505 104.119 -0.92197 -0.112107 3.8 0.0200685 0.481614 -0.876153 -0.999899
122.135 97.4027 108.645 0.0600815 0 4.5 0.188892 -0.533859 0.824205 0.68636
119.991 90.3395 106.855 0.225465 0.00158172 -4.5 -0.0176408 -0.8183 0.574521 0.0399732
113.047 92.055 102.892 -0.681587 0 3.8 -0.292976 -0.378834 0.877866 0.999965
125.199 101.698 110.179 0.165556 0 3.9873 0.528214 0.493229 0.691169 0.999906
125.607 102.096 109.295 0.233065 0 3.8 0.719779 0.685561 0.109201 -0.999893
113.971 94.9818 105.384 -2.1164 -0.179777 -3.5 -0.889225 -0.203993 0.409471 0.663206
128.494 93.9617 110.177 0.10002 -0.338159 1.8 -0.708856 -0.199728 0.676485 -0.999938
125.793 96.937 104.714 0.12598 0 -0.8 0.395313 -0.130331 -0.909253 0.999848
125.487 96.1615 109.741 0.185354 0 4.5 -0.561886 -0.657947 0.501388 0.17498
130.108 94.9893 103.911 -0.379999 -0.562601 3.8 0.0476296 0.231155 -0.97175 -0.999955
124.001 100.237 103.64 0.138372 0 -0.4 0.697972 0.430569 -0.572228 0.999905
124.415 92.5125 106.672 -0.100837 -0.820616 -0.7 0.680287 -0.232663 0.695038 0.999862
119.508 95.0325 111.492 -0.166895 0 3.56043 0.591392 -0.141312 0.793906 -0.102934
126.292 96.251 110.796 0.2251 0 1.91371 -0.121573 -0.712029 0.691545 -0.541252
123.871 101.374 104.288 0.18699 0 -0.4 0.550022 0.460165 -0.696939 0.99996
121.206 95.0915 109.985 -0.0274161 0 4.5 0.743924 0.0719642 0.664378 -0.6747
124.65 101.656 105.089 0.137225 0 -0.4 0.728202 0.247035 -0.639293 -0.999912
124.481 96.1363 108.557 0.143307 0 4.5 -0.323492 -0.350564 0.878896 0.375131
124.652 99.4419 111.881 0.229665 0 4.2 0.0349848 0.270767 0.962009 -0.587425
129.44 97.6364 105.025 0.733587 0 3.8 0.402822 0.452104 -0.795825 -0.525172
121.286 99.5598 111.88 0.0954687 0 4.5 0.0317415 -0.864166 0.502204 -0.999928
128.108 97.4774 111.089 0.114542 0 1.8 0.336034 -0.453223 0.825633 0.999908
126.618 94.2635 109.018 0.104644 0 1.8 -0.472245 -0.678758 0.562381 -0.49005
118.752 90.428 107.032 -0.611091 -0.0326843 -4.40149 0.0321493 -0.979359 0.199554 -0.162403
130.339 99.2565 107.239 0.0905019 0 3.8 0.352636 0.633696 -0.688533 0.999923
126.578 97.7961 104.552 0.312815 -0.203069 0.75182 0.13578 0.229697 -0.963744 -0.0487751
125.784 99.562 104.71 -0.143249 -0.824191 3.8 0.631362 0.57392 -0.521534 -0.593289
120.684 93.3186 110.54 0.0769113 0 -4.5 0.620115 -0.401937 0.673724 -0.640635
125.314 101.776 105.861 0.589162 0 1.32855 0.812093 0.0593526 -0.580501 -0.999927
127.666 93.455 106.492 0.276686 0 -0.7 -0.598782 -0.783824 -0.16456 0.577082
119.626 98.2432 110.85 -0.0210216 0 4.5 0.698177 -0.139893 0.702124 0.999895
129.066 100.05 107.54 0.0928085 0 3.8 0.2782 0.911642 -0.302511 -0.999903
123.818 102.553 111.634 0.177246 0 4.2 0.634728 -0.105028 0.765565 -0.99987
119.502 89.7667 105.32 -0.122372 -0.248266 -4.00673 -0.516404 -0.847621 0.12192 -0.999918
119.483 96.8798 111.41 -0.0908495 0 4.5 0.808711 0.163527 0.565018 0.999919
124.581 95.3577 102.198 -0.283149 0 -0.8 0.873901 0.294727 -0.386566 -0.999901
125.43 92.6387 106.042 0.414446 0 -0.7 0.590296 -0.168698 0.789361 -0.999928
123.092 98.5176 111.459 0.154579 0 4.5 -0.484146 -0.551002 0.679706 -0.724301
119.5 90.961 107.782 -0.113613 0 -4.5 0.33445 -0.841803 0.423687 0.147317
125.788 94.6137 103.86 0.0802287 0 -0.8 0.60987 0.309066 -0.729751 -0.999925
119.806 92.3396 110.152 0.291343 0 -4.5 0.599861 -0.660871 0.451017 0.0204057
128.99 93.3689 104.376 0.73871 0.832972 -4.5 -0.436799 -0.779681 -0.44867 0.999932
118.042 95.4735 112.329 -0.146037 0 -0.9 0.100293 -0.434812 0.894919 -0.999916
112.239 93.5925 103.286 -0.646912 0 3.8 -0.554122 -0.530996 0.641087 0.999895
117.11 90.7572 106.238 -0.817257 0 -3.5 -0.113442 -0.887505 -0.446617 -0.99986
125.627 100.713 111.118 0.154297 0 4.2 0.358318 0.643245 0.676642 -0.658134
125.267 97.4098 111.76 -0.0476811 -0.894163 4.2 -0.155651 -0.497128 0.853602 -0.697527
122.335 96.1666 108.45 0.0501664 0 4.5 0.338187 -0.00160738 0.941077 0.592898
120.761 99.257 110.927 0.0761766 0 4.5 0.133382 -0.846773 0.514961 0.999892
117.612 91.8408 104.464 -0.874656 -0.317056 -3.5 -0.243058 -0.866416 -0.436172 0.999881
124.492 101.34 110.858 0.16211 0 4.2 0.480853 0.256678 0.83839 0.356996
126.85 95.2763 109.717 0.139894 0 1.8 -0.325146 -0.580298 0.746682 0.1046
126.093 94.0346 107.901 0.689575 0.0677416 -0.7 -0.381709 -0.849991 0.363062 -0.0483938
116.326 93.7355 111.712 -0.269584 0 -0.9 0.090075 -0.188834 0.977869 -0.999911
126.248 100.761 108.309 0.180136 0 3.8 0.630784 0.749578 -0.20061 0.732091
125.387 101.872 107.881 0.297622 0 3.8 0.809874 0.558244 -0.180188 0.999929
116.922 91.6182 111.035 -0.71667 0 -0.9 0.109009 -0.449702 0.886501 -0.999896
127.21 100.323 107.673 0.177966 -0.0465048 3.8 0.321506 0.920786 -0.220878 -0.139305
128.83 95.7055 104.019 -0.103735 -0.232317 1.49679 0.120585 0.42089 -0.899061 -0.999851
124.469 98.279 111.832 0.181319 0 4.23842 -0.233215 -0.285979 0.929423 -0.481041
131.645 97.2735 105.759 0.0636161 0 3.8 0.0354936 0.733142 -0.679149 0.999938
118.891 93.7308 111.572 -0.376338 0 -0.9 0.231404 -0.282194 0.931031 -0.482485
129.99 92.1635 105.326 1.35335 0.663689 -4.5 -0.496652 -0.752851 -0.431917 0.999931
128.388 99.787 106.619 -0.0924006 -0.902957 3.8 0.194034 0.83689 -0.511827 -0.864823
126.095 93.2607 105.601 0.252052 0 -0.7 0.634575 -0.169764 0.753986 0.999928
114.307 91.4508 103.052 -1.07304 -0.297222 -2.6448 -0.497003 -0.7327 0.464907 -0.999869
121.898 94.8259 108.828 -0.00579477 0 4.5 0.654205 0.0987156 0.749847 0.593692
114.183 94.8148 106.689 -2.31342 -0.0520047 -3.5 -0.942446 -0.100893 0.318773 -0.999919
121.296 98.0745 109.411 0.0472687 0 4.5 0.370008 -0.379748 0.847871 0.480072
117.92 90.357 108.239 -0.64826 0 -4.5 0.390601 -0.891042 0.231246 -0.999851
128.587 99.751 108.657 0.114146 0 3.8 0.406244 0.90742 0.107495 0.999884
117.384 90.1095 107.35 -0.559955 0 -3.5 0.0803134 -0.980654 -0.178514 -0.999927
126.885 97.5535 111.811 -0.288481 0 3.59359 0.15726 -0.451334 0.878389 -0.85107
119.215 90.7125 104.302 -1.9214 -0.183594 -3.5 -0.624974 -0.704615 -0.336043 0.999898
126.737 100.865 109.357 0.17608 0 3.8 0.530477 0.845645 0.0589862 -0.252202
128.275 92.4932 109.36 -0.215141 -0.561825 0.739469 -0.79204 -0.475849 0.382413 -0.99993
124.354 96.7855 102.849 -0.77812 -0.671088 -0.8 0.839187 0.0230167 -0.543355 0.999884
121.267 90.5113 106.953 1.11603 0.453253 -4.5 0.0550179 -0.736321 0.674392 0.999892
125.29 95.0202 108.797 0.141161 0 3.58042 -0.485667 -0.559134 0.671935 -0.378933
126.962 100.398 110.469 0.140697 0 4.0888 0.342103 0.715989 0.608543 -0.282928
122.537 91.3903 107.803 0.239149 0.133831 -4.5 0.225771 -0.604853 0.763662 -0.999887
124.91 100.384 105.153 0.069318 -0.0409164 0.753019 0.707705 0.42678 -0.563038 0.531432
123.617 100.55 111.532 0.153924 0 4.2 0.441485 0.024652 0.89693 0.158135
122.162 99.056 110.98 0.112679 0 4.5 -0.364019 -0.786878 0.498311 0.0716395
129.024 92.2305 106.321 0.624279 0.549829 -3.54731 -0.593238 -0.740509 -0.315777 -0.999883
119.574 91.5616 109.204 0.144396 0 -4.5 0.54067 -0.780041 0.314981 -0.250891
127.717 97.0851 104.263 0.383815 0 0.467766 -0.0468183 0.132369 -0.990094 -0.637855
113.817 92.139 105.213 -0.795736 -0.056761 3.09202 -0.785508 -0.603873 -0.13533 -0.999921
127.642 96.0329 104.153 0.183927 0 -0.8 -0.0275438 0.235692 -0.971438 0.999909
125.732 99.1049 111.899 0.104624 -0.109675 4.2 0.151772 0.197385 0.968506 -0.583025
126.614 98.896 105.429 -0.555873 -0.363853 3.8 0.520497 0.604703 -0.60284 0.351347
130.454 97.5598 106.006 0.137014 0 3.8 0.318604 0.656411 -0.683824 0.589033
117.298 92.8278 111.418 -0.775122 0 -0.9 0.0537849 -0.259984 0.964114 -0.4042
120.289 94.5144 110.891 -0.12089 0 4.5 0.619693 -0.0400244 0.783823 -0.297206
127.721 98.5355 111.587 0.0964452 0 2.47279 0.178991 0.22904 0.956819 -0.999855
112.927 95.7079 104.604 -2.04112 -0.502588 -3.5 -0.739278 -0.28743 0.608977 -0.999902
127.314 93.3651 107.982 0.191985 0 -0.7 -0.593935 -0.802067 0.0626904 -0.154668
125.802 100.982 106.72 0.468546 0 3.8 0.718623 0.578459 -0.385961 -0.999764
127.93 98.4597 104.755 0.396353 0 3.8 0.0978618 0.615154 -0.78231 -0.999836
124.169 97.1906 109.193 0.15808 0 4.5 -0.468485 -0.763682 0.444197 0.9998
121.15 96.5109 109.783 0.00750317 0 4.5 0.712495 0.0747992 0.697679 -0.344027
120.12 91.5775 108.277 0.00485536 0 -4.5 0.258436 -0.745976 0.613784 0.422102
124.434 94.3487 107.715 0.319275 0.00160924 -0.7 0.059447 -0.724416 0.686795 0.26807
117.845 94.3203 111.572 -0.387392 0 -0.9 -0.0378879 -0.280918 0.958984 0.660229
124.892 99.2236 103.438 0.203836 0.0360933 -0.539611 0.613183 0.509628 -0.603561 -0.999898
122.745 93.0359 108.779 0.0271964 0 -3.73906 0.469808 -0.265661 0.841846 -0.574427
122.206 100.09 112.489 0.155632 0 4.34736 0.633973 -0.396043 0.66425 -0.999883
126.847 94.0801 105.178 0.205206 0 -0.7 0.0975496 -0.988254 -0.117639 0.999829
121.497 92.129 108.527 0.696002 0 -4.5 0.185988 -0.602952 0.775794 -0.149884
115.111 91.5455 104.974 -1.70136 0 0.379352 -0.189531 -0.981627 -0.0220694 -0.999875
128.512 92.0899 107.89 0.308081 0 -0.7 -0.722921 -0.670357 -0.167352 -0.999931
113.757 93.0845 106.091 -1.64149 -0.125244 -3.5 -0.935629 -0.108233 0.335983 -0.999905
116.93 91.81 103.606 -1.5236 -0.393626 -3.5 0.0498991 -0.974867 -0.217128 -0.999877
122.667 98.032 109.983 0.126022 0 4.5 -0.46061 -0.757465 0.462694 -0.0962042
121.444 93.3115 109.554 0.245468 0 2.63029 0.63486 -0.392067 0.66576 -0.0991055
118.893 92.1336 110.959 -0.113142 0 -4.18361 0.357658 -0.499723 0.788897 -0.648472
124.855 97.829 103.116 0.441707 -0.429048 -0.8 0.730429 -0.11668 -0.672948 -0.999883
120.252 96.4257 110.439 -0.0638299 0 4.5 0.706004 0.124387 0.697199 0.508661
125.445 95.566 104.31 0.0716921 0 -0.8 0.675546 0.317213 -0.665592 0.999824
117.506 90.5846 109.862 -0.609331 0 -4.5 0.356975 -0.8072 0.470102 -0.999888
128.225 95.6284 110.191 0.194605 0 1.8 -0.22875 -0.461689 0.857039 0.999896
122.84 99.6596 111.693 0.138896 0 4.5 -0.0326311 -0.39675 0.917347 0.032969
125.369 94.0044 106.379 0.814237 0.803583 -0.7 0.389868 -0.685349 0.61506 0.456104
124.718 97.078 110.884 0.361781 0 4.5 -0.410372 -0.786616 0.461335 -0.32738
123.494 93.8207 108.317 -0.0731454 -0.0984972 2.23193 0.559527 -0.184559 0.808002 -0.189276
113.149 93.6528 104.581 -1.45826 -0.928461 -3.5 -0.850444 -0.281847 0.444192 -0.101843
126.641 95.5801 104.651 0.169245 0 -0.8 0.124633 0.137539 -0.982624 0.999857
128.263 98.9906 105.56 -0.237773 -0.0186904 3.8 0.329699 0.706594 -0.626117 -0.355312
3 144 31 99
3 144 130 31
3 31 131 99
3 144 99 24
3 144 154 130
3 23 31 130
3 31 78 131
3 99 131 148
3 24 99 79
3 24 114 144
3 68 154 144
3 154 39 130
3 78 31 23
3 23 130 48
3 131 78 97
3 46 148 131
3 61 99 148
3 99 61 79
3 24 79 114
3 68 144 114
3 90 154 68
3 154 44 39
3 39 48 130
3 78 23 48
3 78 155 97
3 131 97 46
3 124 148 46
3 148 65 61
3 79 51 114
3 152 68 114
3 154 90 77
3 90 68 152
3 44 154 103
3 44 82 39
3 39 109 48
3 78 48 155
3 155 136 97
3 145 46 97
3 124 43 148
3 124 46 145
3 148 9 65
3 51 152 114
3 120 77 90
3 77 103 154
3 49 90 152
3 44 103 52
3 151 82 44
3 109 39 82
3 109 133 48
3 155 48 133
3 20 136 155
3 145 97 136
3 43 124 92
3 43 9 148
3 124 145 58
3 137 152 51
3 120 103 77
3 49 120 90
3 113 49 152
3 103 125 52
3 52 151 44
3 151 27 82
3 82 53 109
3 109 83 133
3 155 133 153
3 20 111 136
3 42 20 155
3 145 136 139
3 124 146 92
3 73 43 92
3 43 73 9
3 145 71 58
3 58 146 124
3 152 137 113
3 120 125 103
3 120 49 76
3 113 81 49
3 37 27 151
3 27 53 82
3 83 109 53
3 83 153 133
3 155 153 42
3 136 111 139
3 145 139 132
3 146 123 92
3 92 134 73
3 116 71 145
3 146 58 71
3 113 137 63
3 120 110 125
3 76 49 81
3 120 76 110
3 113 63 81
3 37 106 27
3 27 127 53
3 53 127 83
3 153 83 127
3 42 153 67
3 139 111 132
3 116 145 132
3 87 123 146
3 92 123 134
3 73 134 29
3 116 14 71
3 146 71 14
3 63 137 10
3 125 110 26
3 34 76 81
3 110 76 105
3 81 63 5
3 106 127 27
3 153 127 138
3 153 95 67
3 111 108 132
3 69 116 132
3 7 123 87
3 87 146 150
3 123 84 134
3 29 134 84
3 116 150 14
3 150 146 14
3 137 18 10
3 26 110 12
3 34 35 76
3 5 34 81
3 105 76 35
3 12 110 105
3 106 141 127
3 138 127 60
3 95 153 138
3 108 32 132
3 69 100 116
3 32 69 132
3 7 84 123
3 100 150 116
3 105 35 85
3 12 105 101
3 13 127 141
3 127 13 60
3 138 60 3
3 28 32 108
3 100 69 54
3 32 54 69
3 85 35 86
3 105 85 88
3 88 101 105
3 13 141 115
3 115 60 13
3 115 3 60
3 28 64 32
3 102 100 54
3 64 54 32
3 85 86 128
3 128 88 85
3 62 101 88
3 115 72 3
3 19 102 54
3 64 19 54
3 128 6 88
3 62 88 94
3 93 72 115
3 19 75 102
3 64 104 19
3 6 128 121
3 88 6 94
3 94 8 62
3 80 75 19
3 80 19 104
3 128 57 121
3 129 6 121
3 6 158 94
3 8 94 158
3 55 62 8
3 80 143 75
3 104 25 80
3 128 112 57
3 121 57 15
3 6 129 158
3 129 121 56
3 158 122 8
3 8 122 55
3 143 2 75
3 112 128 59
3 135 57 112
3 135 15 57
3 121 15 56
3 129 50 158
3 129 56 117
3 122 158 50
3 122 17 55
3 2 143 140
3 112 59 47
3 41 135 112
3 15 135 147
3 56 15 38
3 50 129 117
3 38 117 56
3 50 1 122
3 17 122 91
3 22 140 143
3 41 112 47
3 147 38 15
3 119 50 117
3 117 38 157
3 1 50 89
3 4 122 1
3 91 122 4
3 140 22 96
3 41 47 45
3 107 38 147
3 50 119 89
3 117 157 119
3 38 149 157
3 30 1 89
3 4 1 30
3 140 96 11
3 38 107 149
3 149 70 157
3 40 30 89
3 11 96 156
3 11 118 140
3 107 66 149
3 149 16 70
3 70 138 157
3 96 74 156
3 11 156 118
3 16 149 66
3 33 74 96
3 21 156 74
3 118 156 142
3 21 126 156
3 142 156 98
3 156 126 36
3 36 98 156
3 126 98 36
3 0 98 126
